<?xml version="1.0" encoding="UTF-8"?>
<svg version="1.1" xmlns="http://www.w3.org/2000/svg" width="449" height="455">
<path d="M0 0 C148.17 0 296.34 0 449 0 C449 150.15 449 300.3 449 455 C300.83 455 152.66 455 0 455 C0 304.85 0 154.7 0 0 Z " fill="#01213A" transform="translate(0,0)"/>
<path d="M0 0 C26.07 0 52.14 0 79 0 C79.33 86.79 79.66 173.58 80 263 C73.2507811 264.12486982 73.2507811 264.12486982 69.78147888 264.13803101 C68.99794037 264.14348434 68.21440186 264.14893768 67.40711975 264.15455627 C66.14683205 264.15611977 66.14683205 264.15611977 64.86108398 264.15771484 C63.96115723 264.16279556 63.06123047 264.16787628 62.1340332 264.17311096 C60.18777361 264.18377764 58.24150203 264.1924122 56.29522514 264.19923019 C53.21425422 264.21105975 50.1334209 264.23052059 47.05250549 264.25234985 C38.29554814 264.31384728 29.53860792 264.36807568 20.78149414 264.40136719 C15.41875576 264.42230029 10.05627371 264.45758476 4.69368172 264.50212479 C2.6519783 264.51628687 0.61022961 264.52500769 -1.43152046 264.52817917 C-4.28478021 264.53308275 -7.1373573 264.55622403 -9.99047852 264.58349609 C-10.83269455 264.58048996 -11.67491058 264.57748383 -12.54264832 264.5743866 C-17.14247488 264.63974409 -20.31202664 264.93536234 -24 268 C-25.11083501 271.33250502 -25.16759585 273.93038958 -25.1875 277.4375 C-25.20167969 278.57058594 -25.21585938 279.70367187 -25.23046875 280.87109375 C-25.00904861 283.87715357 -24.6672656 285.52542684 -23 288 C-20.06389751 289.46805125 -17.11114686 289.127944 -13.89404297 289.10864258 C-13.1623653 289.10811323 -12.43068764 289.10758389 -11.67683792 289.1070385 C-9.24024777 289.10379364 -6.80375388 289.09308407 -4.3671875 289.08203125 C-2.65078807 289.07750323 -0.93438787 289.07326089 0.78201294 289.06929016 C6.18805601 289.0544513 11.5940108 289.02784033 17 289 C18.70747873 288.99198086 20.41495757 288.98398476 22.12243652 288.97601318 C31.22524249 288.93123404 40.32755794 288.86304158 49.42994308 288.76426506 C53.62434139 288.71886059 57.81861608 288.67958066 62.01318359 288.65356445 C66.19392265 288.62751716 70.37429952 288.58723479 74.55481339 288.53681374 C76.116747 288.52030899 77.67874128 288.50869388 79.24074936 288.50238609 C90.47364049 288.52475718 90.47364049 288.52475718 101 285 C105.41458372 280.44301035 105.14195173 275.49806492 105.09375 269.484375 C105.08837219 268.20998566 105.08837219 268.20998566 105.08288574 266.90985107 C105.03801176 259.71489037 104.85268767 252.52642338 104.64428711 245.3347168 C103.93728404 220.78611606 103.91421028 196.24404633 103.9375 171.6875 C103.93835602 170.7800856 103.93921204 169.8726712 103.94009399 168.9377594 C103.95156129 157.62515088 103.97254126 146.31258033 104 135 C113.24 135 122.48 135 132 135 C131.99476318 138.32360596 131.98952637 141.64721191 131.98413086 145.0715332 C131.96747416 156.11957889 131.95648071 167.16762516 131.94818783 178.21568012 C131.94306248 184.90640775 131.93596413 191.59712159 131.92456055 198.2878418 C131.91360198 204.75881768 131.90769601 211.22978116 131.90512276 217.70076561 C131.90329167 220.1551756 131.89971669 222.60958501 131.89426994 225.06398964 C131.86716828 237.79642433 131.96466909 250.47238491 132.7648468 263.18252563 C133.07048646 268.14427641 133.21785676 273.09235134 133.25 278.0625 C133.2809375 279.31063477 133.2809375 279.31063477 133.3125 280.58398438 C133.37739253 291.02357036 130.67539021 298.29197964 123.40234375 305.80078125 C114.65292054 313.81041584 106.08615559 315.28202328 94.54296875 315.58984375 C93.37799362 315.62665756 92.21301849 315.66347137 91.01274109 315.70140076 C74.67722189 316.17980551 58.33383962 316.35110665 41.99288177 316.53242874 C39.28456849 316.56281336 36.57627414 316.59455459 33.86798096 316.62667847 C5.5779166 316.9608848 -22.70780044 317.14459765 -51 317 C-51.01617371 316.42006287 -51.03234741 315.84012573 -51.04901123 315.24261475 C-51.22111295 309.20723658 -51.42011351 303.17317174 -51.63476562 297.13916016 C-51.71133742 294.88710585 -51.78104495 292.63480727 -51.84375 290.38232422 C-51.93507353 287.14461966 -52.05104696 283.90859611 -52.171875 280.671875 C-52.20652863 279.16074127 -52.20652863 279.16074127 -52.24188232 277.61907959 C-52.2816217 276.67840637 -52.32136108 275.73773315 -52.36230469 274.76855469 C-52.38895203 273.94248718 -52.41559937 273.11641968 -52.4430542 272.26531982 C-53.21953054 269.10708209 -54.39680133 267.92505746 -57 266 C-59.93672356 265.36647655 -59.93672356 265.36647655 -63.25927734 265.41040039 C-65.19500107 265.36634315 -65.19500107 265.36634315 -67.16983032 265.32139587 C-68.60019574 265.30889269 -70.03056505 265.2968277 -71.4609375 265.28515625 C-72.96921639 265.25868742 -74.47746717 265.23057362 -75.98568726 265.20094299 C-80.11607363 265.12528771 -84.24642048 265.07516238 -88.37724304 265.03037262 C-91.92569868 264.98928002 -95.47390708 264.93498979 -99.02218437 264.8808794 C-111.2228153 264.69575285 -123.42360123 264.56490053 -135.625 264.4375 C-155.610625 264.2209375 -155.610625 264.2209375 -176 264 C-176 221.76 -176 179.52 -176 136 C-167.09 136 -158.18 136 -149 136 C-148.9906543 138.71476563 -148.98130859 141.42953125 -148.97167969 144.2265625 C-148.93786343 153.21127309 -148.8822885 162.19575511 -148.81609726 171.18028259 C-148.77664284 176.625897 -148.74444426 182.0713502 -148.72900391 187.51708984 C-148.7138241 192.77574667 -148.67935456 198.03396023 -148.63169098 203.29241943 C-148.61689092 205.29535055 -148.60895978 207.29834495 -148.60811615 209.30133057 C-148.60574063 212.11412426 -148.57861382 214.92569876 -148.54589844 217.73828125 C-148.5509288 218.56043625 -148.55595917 219.38259125 -148.56114197 220.22966003 C-148.46385525 225.66070964 -147.56079245 230.7090402 -144 235 C-139.94030506 237.25585652 -135.97374843 237.2829174 -131.44029236 237.25396729 C-130.31105712 237.25864726 -130.31105712 237.25864726 -129.15900904 237.26342177 C-126.64100083 237.27138757 -124.12323454 237.26508373 -121.60522461 237.25878906 C-119.79819091 237.26149953 -117.99115831 237.26506078 -116.18412781 237.26940918 C-111.27932551 237.27852813 -106.37460734 237.27499111 -101.46980357 237.26865101 C-96.33871785 237.26358926 -91.20763935 237.26828288 -86.07655334 237.27142334 C-77.46077175 237.27506214 -68.84502444 237.27026579 -60.22924805 237.26074219 C-50.26411822 237.24985436 -40.29907021 237.25338595 -30.33394235 237.264395 C-21.78097646 237.2734662 -13.22803521 237.27475407 -4.67506605 237.26951766 C0.43458837 237.26639749 5.54420432 237.26599 10.65385628 237.27259064 C15.45633342 237.27836114 20.25870487 237.2743726 25.06117058 237.26280212 C26.82524312 237.26015411 28.58932453 237.26092304 30.35339355 237.26532745 C32.75814176 237.27077867 35.16254958 237.26395406 37.567276 237.25396729 C38.26814852 237.25842873 38.96902104 237.26289017 39.69113213 237.26748681 C43.27195723 237.23856913 46.01077988 237.07479272 49 235 C50.56474126 231.87051748 50.22569951 228.55744398 50.25 225.125 C50.270625 224.40441406 50.29125 223.68382812 50.3125 222.94140625 C50.33474069 219.92223283 50.26095072 217.51605103 48.88517761 214.79534912 C46.16266838 212.20256714 44.22807993 212.48201186 40.5090332 212.45410156 C39.52814224 212.43859505 39.52814224 212.43859505 38.5274353 212.42277527 C36.3683006 212.39330254 34.21010146 212.39184729 32.05078125 212.390625 C30.55289416 212.37564619 29.0550236 212.35891967 27.55717468 212.34051514 C23.61655935 212.29679492 19.67616679 212.27683248 15.73535156 212.26177979 C11.71340739 212.24222529 7.69170442 212.20025354 3.66992188 212.16015625 C-4.22001859 212.08480345 -12.10978456 212.03661499 -20 212 C-20 203.09 -20 194.18 -20 185 C-17.32390625 184.97421875 -14.6478125 184.9484375 -11.890625 184.921875 C-9.2591766 184.88331127 -6.62791477 184.8381977 -3.99658203 184.79248047 C-2.18710444 184.76449388 -0.37750966 184.74317002 1.43212891 184.72900391 C15.47747189 184.61254169 28.95297563 183.81957722 40 174 C49.57151771 163.25303275 49.46015048 149.90086163 49.51171875 136.30078125 C49.52859591 134.61255107 49.54675015 132.92433322 49.56611633 131.23612976 C49.61329321 126.82878475 49.64331033 122.42148976 49.66955566 118.01397705 C49.69952572 113.50205613 49.74599885 108.99030707 49.79101562 104.47851562 C49.87668033 95.65242885 49.94418781 86.82632584 50 78 C50.98742187 77.95101562 51.97484375 77.90203125 52.9921875 77.8515625 C54.91417969 77.73941406 54.91417969 77.73941406 56.875 77.625 C58.78925781 77.52058594 58.78925781 77.52058594 60.7421875 77.4140625 C64.08061699 77.32758894 64.08061699 77.32758894 66 75 C65.70199254 70.46965259 64.35992446 67.44439213 61.9375 63.65625 C60.99547729 62.16641602 60.99547729 62.16641602 60.03442383 60.64648438 C59.02738403 59.08897461 59.02738403 59.08897461 58 57.5 C57.32026123 56.43587891 56.64052246 55.37175781 55.94018555 54.27539062 C54.58518121 52.15532677 53.22677004 50.03743598 51.86474609 47.921875 C50.25765103 45.40371399 48.6887857 42.86944535 47.14453125 40.3125 C46.74169922 39.65443359 46.33886719 38.99636719 45.92382812 38.31835938 C44.88717116 36.62217724 43.85925605 34.92066091 42.83203125 33.21875 C42.22746094 32.4865625 41.62289062 31.754375 41 31 C37.13587228 30.54918508 37.13587228 30.54918508 35.4296875 32.44140625 C34.91664063 33.14136719 34.40359375 33.84132812 33.875 34.5625 C33.27042969 35.38621094 32.66585937 36.20992187 32.04296875 37.05859375 C28.84466037 41.66342398 25.71734725 46.31055957 22.64453125 51 C20.84808672 53.73743928 19.01018918 56.43971357 17.13671875 59.125 C16.67434814 59.79515137 16.21197754 60.46530273 15.7355957 61.15576172 C14.84852812 62.43964601 13.95289676 63.71766805 13.04760742 64.98876953 C10.70658945 68.40666521 9.24054758 70.81556607 10 75 C12.77042109 77.77042109 14.76533805 77.39796106 18.625 77.625 C19.81351563 77.69976562 21.00203125 77.77453125 22.2265625 77.8515625 C23.59941406 77.92503906 23.59941406 77.92503906 25 78 C25.09272506 87.56198272 25.16377752 97.12381042 25.20724869 106.68614483 C25.2281139 111.12645549 25.25641177 115.5664583 25.30175781 120.0065918 C25.34525406 124.29247369 25.36914513 128.57805968 25.37950897 132.86414528 C25.3868936 134.49842804 25.40131425 136.13269481 25.42292023 137.76685143 C25.45200559 140.05805694 25.45595403 142.34804355 25.45410156 144.6394043 C25.46298401 145.94290329 25.47186646 147.24640228 25.48101807 148.58940125 C24.91091857 152.63162077 23.9440144 154.20956635 21 157 C16.72588542 159.50482008 12.26543413 159.27061133 7.44604492 159.22705078 C6.17210876 159.22748886 6.17210876 159.22748886 4.87243652 159.22793579 C2.07500875 159.22654634 -0.7221502 159.21100323 -3.51953125 159.1953125 C-5.46294509 159.191581 -7.40636082 159.18873468 -9.34977722 159.18673706 C-14.45764384 159.17911137 -19.56539621 159.15947197 -24.67321777 159.1373291 C-30.80561716 159.11324494 -36.9380548 159.10408463 -43.07048798 159.09242249 C-52.38040471 159.07304701 -61.69007089 159.03471695 -71 159 C-71 142.17 -71 125.34 -71 108 C-56.81 108 -42.62 108 -28 108 C-27.67 114.27 -27.34 120.54 -27 127 C-25.34922098 130.75170424 -25.34922098 130.75170424 -23 134 C-16.43135658 134.44550736 -10.15817179 134.46326872 -4 132 C-2.79864725 129.5972945 -2.87079518 128.08830294 -2.8671875 125.40625 C-2.86501221 124.4663623 -2.86283691 123.52647461 -2.8605957 122.55810547 C-2.86772583 121.04434326 -2.86772583 121.04434326 -2.875 119.5 C-2.87910889 118.47148926 -2.88321777 117.44297852 -2.88745117 116.38330078 C-2.93424577 109.87734257 -3.03457438 103.37544755 -3.3125 96.875 C-3.33489746 96.14861328 -3.35729492 95.42222656 -3.38037109 94.67382812 C-3.60667805 90.36068373 -4.29283431 87.40807082 -7 84 C-10.50994104 82.83001965 -13.67753897 82.84468794 -17.32958984 82.83886719 C-18.07302139 82.83390228 -18.81645294 82.82893738 -19.58241272 82.82382202 C-22.04193039 82.80921645 -24.50138358 82.8024013 -26.9609375 82.796875 C-28.6710307 82.79112248 -30.38112388 82.78536476 -32.09121704 82.77960205 C-35.67735087 82.76909681 -39.26346232 82.76325094 -42.84960938 82.75976562 C-47.44190923 82.7542801 -52.03391272 82.73024892 -56.62611961 82.70179367 C-60.15889345 82.6831591 -63.69159599 82.67796127 -67.22441483 82.67642975 C-68.91727952 82.67340484 -70.61014302 82.66538172 -72.30295944 82.65224457 C-74.67274207 82.6351657 -77.04180168 82.63706847 -79.41162109 82.64355469 C-80.45759712 82.62973251 -80.45759712 82.62973251 -81.52470398 82.6156311 C-85.85609903 82.65271778 -88.5300028 83.39642109 -92 86 C-94.86641021 89.65508095 -94.35199549 94.30704564 -94.4140625 98.75 C-94.43351929 99.62412033 -94.45297607 100.49824066 -94.47302246 101.39884949 C-94.53371102 104.26580049 -94.57991964 107.13276421 -94.625 110 C-94.6622366 111.98218455 -94.6998375 113.96436229 -94.73779297 115.9465332 C-94.96910569 128.69256179 -95.09899594 141.43943351 -95.125 154.1875 C-95.12767883 154.93249756 -95.13035767 155.67749512 -95.13311768 156.44506836 C-96.16087264 170.6809317 -96.16087264 170.6809317 -91 183 C-88.89800068 183.61241165 -88.89800068 183.61241165 -86.52856445 183.54589844 C-85.62785721 183.56561707 -84.72714996 183.58533569 -83.79914856 183.60565186 C-82.83031235 183.60688049 -81.86147614 183.60810913 -80.86328125 183.609375 C-79.86870407 183.62591125 -78.87412689 183.64244751 -77.84941101 183.65948486 C-74.67037871 183.7080995 -71.4918252 183.72936594 -68.3125 183.75 C-66.15817886 183.77814837 -64.00388016 183.80807419 -61.84960938 183.83984375 C-56.56618312 183.91721184 -51.28428647 183.95760701 -46 184 C-46 193.24 -46 202.48 -46 212 C-71.41 212 -96.82 212 -123 212 C-123.04010881 188.17091072 -123.04010881 188.17091072 -123.04882812 177.61914062 C-123.0546928 170.5567139 -123.06143999 163.49430068 -123.07543945 156.43188477 C-123.14071337 122.60891213 -122.77004067 88.8143735 -122 55 C-121.42315901 54.99668985 -120.84631802 54.99337971 -120.25199699 54.98996925 C-106.2048333 54.90868696 -92.15777532 54.81657742 -78.11076164 54.71247292 C-71.31767902 54.66238845 -64.5246082 54.61594514 -57.73144531 54.578125 C-51.17616329 54.54161894 -44.62100024 54.49489791 -38.06583023 54.44193649 C-35.56441652 54.42339841 -33.06297498 54.40828829 -30.56151962 54.39665604 C-27.05894414 54.37978394 -23.5566656 54.35074567 -20.05419922 54.31884766 C-19.01913742 54.31668747 -17.98407562 54.31452728 -16.91764832 54.31230164 C-9.75567476 54.2339094 -9.75567476 54.2339094 -3 52 C-0.46256455 46.41957057 -0.65938226 40.52299354 -0.5859375 34.47265625 C-0.55947144 33.15630188 -0.55947144 33.15630188 -0.5324707 31.81335449 C-0.46983094 28.56324942 -0.42335022 25.31284905 -0.375 22.0625 C-0.25125 14.781875 -0.1275 7.50125 0 0 Z " fill="#FDFDFD" transform="translate(273,96)"/>
<path d="M0 0 C148.17 0 296.34 0 449 0 C449 150.15 449 300.3 449 455 C300.83 455 152.66 455 0 455 C0 304.85 0 154.7 0 0 Z M38.8125 23.6875 C38.21445557 24.13029297 37.61641113 24.57308594 37.00024414 25.02929688 C27.34313092 32.35547364 20.28096039 41.84634415 18 54 C17.69432831 58.43128101 17.70173433 62.85531173 17.70133972 67.2958374 C17.69418293 68.65522793 17.68616829 70.01461416 17.67737275 71.37399507 C17.65579368 75.09946377 17.64652791 78.82487591 17.63934863 82.55039644 C17.62946907 86.57236656 17.60822767 90.59427928 17.58850098 94.61621094 C17.55177201 102.49235779 17.52588713 110.36850438 17.50411084 118.24470541 C17.48629218 124.64844333 17.46500039 131.05216062 17.44124794 137.45587921 C17.43787739 138.36762404 17.43450684 139.27936887 17.43103415 140.21874233 C17.42418493 142.07103855 17.4173338 143.92333477 17.41048077 145.77563098 C17.34674808 163.14536797 17.29596549 180.51512531 17.24906025 197.88491467 C17.20576638 213.76535997 17.14600131 229.64569334 17.07846519 245.52605245 C17.00923757 261.84028696 16.95128007 278.15452623 16.9054268 294.4688437 C16.87949129 303.62469518 16.8491006 312.78047946 16.80687523 321.93627167 C16.77104155 329.73221003 16.74586064 337.52809471 16.73429968 345.32410833 C16.72811437 349.29917214 16.71712279 353.2740636 16.69284248 357.24906158 C16.67071056 360.89351808 16.66278073 364.53772919 16.66579656 368.1822491 C16.66382655 370.11340688 16.64704736 372.04453239 16.629605 373.9756124 C16.65344317 381.44823062 17.62433384 387.91311974 20 395 C20.36480469 396.093125 20.72960937 397.18625 21.10546875 398.3125 C28.19279189 415.91567084 40.61732993 427.68587051 57.53125 435.5390625 C61.93989482 437.3958566 65.31161529 438.12474444 70.08547974 438.13371277 C71.1186199 438.13798405 72.15176006 438.14225533 73.2162075 438.14665604 C74.3502936 438.14619656 75.48437969 438.14573708 76.65283203 438.14526367 C77.85952356 438.14856564 79.0662151 438.1518676 80.30947304 438.15526962 C83.66456968 438.1630789 87.01960749 438.16622763 90.37470913 438.16700435 C93.25852257 438.16830816 96.14232739 438.17295044 99.02613735 438.17743546 C108.55997294 438.19182711 118.09378752 438.1919254 127.62763119 438.18834877 C130.11636037 438.18750294 132.60508936 438.18704863 135.09381866 438.18669128 C188.8324626 438.17718034 242.56827114 437.90914473 296.30387986 437.3332513 C302.57087755 437.26684154 308.83791671 437.20999057 315.1050415 437.15707397 C322.7756849 437.09193473 330.44602264 437.01238254 338.11632347 436.91472083 C342.03536115 436.8650401 345.95422176 436.82097597 349.87348175 436.79326057 C373.40500916 436.61936796 396.6458967 436.0879055 414.68359375 418.64453125 C421.84288594 410.47110661 426.89983939 401.42613537 430 391 C430.33 390.01 430.66 389.02 431 388 C431.09136823 386.1459946 431.12269661 384.28881207 431.12139702 382.43255711 C431.12298817 381.26704683 431.12457931 380.10153655 431.12621868 378.90070778 C431.12282549 377.61416406 431.11943229 376.32762035 431.11593628 375.00209045 C431.11582211 373.62624545 431.11613564 372.25040036 431.11684144 370.87455553 C431.11745212 367.0849606 431.11167786 363.29539794 431.10481787 359.50581014 C431.09846826 355.42175257 431.09782787 351.33769327 431.09629822 347.25363159 C431.09120647 337.38449515 431.07613139 327.5153837 431.05936974 317.64626113 C431.05470539 314.85835059 431.0503107 312.07043977 431.04601526 309.28252864 C431.01933489 291.96821599 430.98952671 274.65391205 430.95004082 257.33962345 C430.94094022 253.32822236 430.93187014 249.3168212 430.92285156 245.30541992 C430.920607 244.3084082 430.91836243 243.31139648 430.91604985 242.28417229 C430.8802745 226.14231581 430.86496492 210.00050735 430.85809408 193.85861535 C430.85069074 177.28338425 430.82451867 160.70826494 430.78014576 144.13309091 C430.75571027 134.82792362 430.7395174 125.52290132 430.74441147 116.21769905 C430.74853386 108.29055602 430.73567199 100.36366847 430.70085029 92.43659688 C430.68361345 88.39455661 430.67430436 84.35292081 430.68686104 80.31085396 C430.69818763 76.60364432 430.68619636 72.89723797 430.65634955 69.19013792 C430.64640642 67.22776689 430.66076093 65.26531802 430.67624176 63.30298287 C430.52292439 50.33344113 425.66936021 39.60386836 417 30 C407.15949514 20.9250224 395.67272363 15.88531101 382.22772694 15.86857224 C381.06745135 15.86473109 379.90717577 15.86088995 378.71174031 15.8569324 C377.44133089 15.85779888 376.17092146 15.85866537 374.86201477 15.85955811 C373.49539185 15.85697339 372.12876968 15.85395993 370.76214856 15.8505547 C367.00742513 15.84249391 363.25272083 15.84069565 359.49798977 15.83995724 C355.44808193 15.83810508 351.39818398 15.83055691 347.34828186 15.82382202 C338.49281839 15.81024466 329.63735944 15.80421489 320.78188729 15.79981136 C315.25144813 15.7970479 309.72101072 15.79281036 304.19057274 15.78830719 C288.87544648 15.77611525 273.56032162 15.76581582 258.24519062 15.7624321 C257.26513491 15.76221253 256.2850792 15.76199297 255.27532483 15.76176675 C254.29293719 15.76154847 253.31054956 15.76133019 252.29839259 15.7611053 C250.30773373 15.76066183 248.31707487 15.76021527 246.32641602 15.75976562 C245.33898252 15.7595442 244.35154903 15.75932277 243.33419331 15.75909463 C227.33659281 15.75514716 211.33903787 15.73769438 195.34145496 15.7144061 C178.91312629 15.69068401 162.48482047 15.67822985 146.05647439 15.67706418 C136.83413123 15.6761479 127.61184744 15.67040734 118.38952065 15.65224457 C110.53601764 15.63683201 102.68259236 15.63172994 94.8290771 15.63998267 C90.8237929 15.64388509 86.81866515 15.64297957 82.81340027 15.62892532 C79.14236294 15.61616193 75.47159925 15.61740511 71.80056217 15.62951604 C69.85268938 15.63238962 67.90481176 15.62055574 65.95697671 15.60809398 C55.57043575 15.66642931 47.16680226 17.36519448 38.8125 23.6875 Z " fill="#FAFBFB" transform="translate(0,0)"/>
<path d="M0 0 C0.97380615 0.00151062 1.9476123 0.00302124 2.95092773 0.00457764 C6.23056028 0.01408696 9.50957982 0.0459254 12.7890625 0.078125 C15.11539221 0.09018344 17.44172739 0.1012225 19.76806641 0.11132812 C27.98372329 0.15537662 36.19880063 0.23931308 44.4140625 0.328125 C45.64697021 0.34125229 45.64697021 0.34125229 46.90478516 0.35464478 C72.74187928 0.62985269 98.57810195 0.96251261 124.4140625 1.328125 C124.4140625 10.898125 124.4140625 20.468125 124.4140625 30.328125 C119.18236206 30.33428833 119.18236206 30.33428833 113.8449707 30.34057617 C102.32972148 30.35776264 90.81466498 30.40199372 79.29955769 30.46021557 C72.31693852 30.49485866 65.33451663 30.52022016 58.35180664 30.52368164 C51.61482465 30.52704743 44.87841397 30.55634415 38.14156151 30.60155678 C35.56955033 30.61456053 32.99747986 30.61882936 30.42543983 30.61427879 C26.82645519 30.60939365 23.22893213 30.63537609 19.63012695 30.66870117 C18.56341766 30.66007553 17.49670837 30.65144989 16.39767456 30.64256287 C10.3994948 30.72682393 10.3994948 30.72682393 5.27555847 33.68183899 C1.93812585 38.42630333 2.26592964 42.84842963 2.26879883 48.43359375 C2.26544022 49.36555573 2.2620816 50.2975177 2.25862122 51.25772095 C2.24910862 54.34370245 2.24716808 57.42962974 2.24609375 60.515625 C2.24288187 62.65649437 2.23951785 64.79736352 2.23600769 66.93823242 C2.23001599 71.42725127 2.22816788 75.91625087 2.22875977 80.40527344 C2.2288615 86.16577641 2.21519761 91.92615645 2.19798756 97.68663025 C2.186887 102.10803803 2.18483994 106.52941589 2.18536949 110.95083618 C2.18418688 113.07516911 2.17974948 115.19950276 2.17203712 117.32382202 C2.16227454 120.29018865 2.16510027 123.25628557 2.17114258 126.22265625 C2.16271332 127.54591415 2.16271332 127.54591415 2.15411377 128.89590454 C2.16611694 133.90945988 2.16611694 133.90945988 4.4140625 138.328125 C6.40878196 138.75909992 6.40878196 138.75909992 8.6953125 138.65625 C9.95794922 138.64851563 9.95794922 138.64851563 11.24609375 138.640625 C12.56673828 138.6096875 12.56673828 138.6096875 13.9140625 138.578125 C14.79449219 138.57296875 15.67492187 138.5678125 16.58203125 138.5625 C21.15205425 138.65150364 21.15205425 138.65150364 25.4140625 137.328125 C26.84219194 133.62671423 26.58789113 129.62618681 26.61938477 125.71386719 C26.62928436 124.95250458 26.63918396 124.19114197 26.64938354 123.40670776 C26.68091026 120.89616988 26.70572097 118.38561309 26.73046875 115.875 C26.75104591 114.13193273 26.77204258 112.38887036 26.79344177 110.64581299 C26.84858379 106.06245908 26.89802773 101.47906072 26.94628906 96.89562988 C26.9965616 92.21683811 27.05221762 87.53811072 27.10742188 82.859375 C27.21490717 73.6823467 27.31637347 64.50526244 27.4140625 55.328125 C28.01336201 55.32665844 28.61266151 55.32519188 29.23012161 55.32368088 C43.81072419 55.28663326 58.39112371 55.22764585 72.97153091 55.14422226 C80.02252841 55.1044085 87.07341393 55.072028 94.12451172 55.05712891 C100.92626525 55.04273583 107.72765926 55.00765159 114.52925873 54.95981598 C117.12721495 54.94495199 119.72522069 54.93708113 122.3232193 54.93624115 C125.95576697 54.93388492 129.5873452 54.90691183 133.21972656 54.87402344 C134.29938187 54.8790538 135.37903717 54.88408417 136.4914093 54.88926697 C142.15135354 54.91300981 142.15135354 54.91300981 147.0512085 52.41900635 C149.11248106 49.25661599 149.5376071 47.5338043 149.52758789 43.78662109 C149.52751236 42.84579681 149.52743683 41.90497253 149.52735901 40.93563843 C149.52219772 39.91789337 149.51703644 38.90014832 149.51171875 37.8515625 C149.5103038 36.81117828 149.50888885 35.77079407 149.50743103 34.69888306 C149.50182116 31.36693479 149.48926697 28.03505305 149.4765625 24.703125 C149.47154877 22.44791764 149.46698564 20.19270922 149.46289062 17.9375 C149.45184853 12.40101886 149.43510077 6.86457668 149.4140625 1.328125 C164.9521082 1.1954688 180.49017121 1.06502471 196.02825546 0.93697357 C203.24850058 0.87742315 210.468739 0.8172172 217.68896484 0.75537109 C220.49706984 0.73138983 223.30517536 0.70747055 226.11328125 0.68359375 C226.80566045 0.67769793 227.49803965 0.6718021 228.21140003 0.66572762 C235.81370733 0.60126441 243.416017 0.54072839 251.01843262 0.49047852 C252.02742654 0.48379733 252.02742654 0.48379733 253.05680418 0.47698116 C256.38673121 0.45505416 259.71666032 0.43356454 263.04659271 0.41246033 C270.29222629 0.36435845 277.53703243 0.29419293 284.78217697 0.1974411 C288.9061422 0.14512684 293.03014464 0.10827216 297.1543045 0.07521057 C299.01752467 0.05660677 300.88069063 0.03098454 302.74370575 -0.00233459 C305.26326626 -0.04675744 307.7818707 -0.06639181 310.30175781 -0.08007812 C311.37239094 -0.10865906 311.37239094 -0.10865906 312.46465302 -0.13781738 C318.85821905 -0.12556041 323.90598494 2.13028003 328.65625 6.29296875 C329.19507813 6.94394531 329.73390625 7.59492187 330.2890625 8.265625 C330.84335937 8.91402344 331.39765625 9.56242187 331.96875 10.23046875 C334.95538134 14.56512018 335.66348398 18.29184684 335.65457153 23.51008606 C335.65869553 25.37571701 335.65869553 25.37571701 335.66290283 27.27903748 C335.65582551 28.64932348 335.64855591 30.01960851 335.64111328 31.38989258 C335.64054888 32.83888745 335.64086629 34.2878829 335.64199829 35.73687744 C335.64257168 39.66419232 335.63081963 43.59138481 335.61685038 47.51867127 C335.60434072 51.62529011 335.60317233 55.7319118 335.60079956 59.83854675 C335.59458549 67.61221209 335.57817565 75.38582112 335.55810058 83.15946168 C335.53573933 92.01067095 335.52474758 100.86188293 335.51470971 109.71311343 C335.49380935 127.91815569 335.45713402 146.12312076 335.4140625 164.328125 C326.1740625 164.658125 316.9340625 164.988125 307.4140625 165.328125 C307.39218872 159.6044458 307.39218872 159.6044458 307.36987305 153.76513672 C307.31955844 141.1642628 307.25311915 128.56351732 307.17834759 115.96276665 C307.13340359 108.32219701 307.09398575 100.68167384 307.06762695 93.04101562 C307.04463551 86.38053618 307.01122479 79.72020394 306.96536094 73.05984128 C306.941444 69.53400122 306.92270528 66.00830683 306.91644859 62.48238754 C306.90926446 58.54392275 306.87881605 54.60582265 306.84643555 50.66748047 C306.84858818 48.91852226 306.84858818 48.91852226 306.8507843 47.13423157 C306.84172171 39.25794668 306.84172171 39.25794668 303.4140625 32.328125 C299.6829648 30.10709169 296.2419542 30.07980765 291.96362305 30.08520508 C290.02370735 30.08067322 290.02370735 30.08067322 288.04460144 30.0760498 C286.62999335 30.08298018 285.21538661 30.09019041 283.80078125 30.09765625 C282.32363401 30.09838619 280.8464862 30.09832943 279.36933899 30.09753418 C275.42653772 30.09837277 271.48389486 30.11244291 267.5411377 30.13028336 C265.10530695 30.14060913 262.66948731 30.1477887 260.23364258 30.15390015 C249.29353293 30.18193116 238.3538614 30.24147025 227.4140625 30.328125 C226.18109436 30.33779297 224.94812622 30.34746094 223.67779541 30.35742188 C217.74766117 30.40825795 211.81857301 30.47887013 205.88931274 30.59359741 C204.25476626 30.62465236 202.62013266 30.65144937 200.98544312 30.67373657 C198.77352012 30.70644218 196.56293771 30.75804927 194.3515625 30.81640625 C193.16433594 30.84259033 191.97710937 30.86877441 190.75390625 30.89575195 C186.67499419 31.42380409 184.04147933 32.37539151 180.4140625 34.328125 C178.52511756 37.23485015 178.1517315 39.57620567 178.09521484 43.00488281 C178.07534515 43.92553528 178.05547546 44.84618774 178.03500366 45.79473877 C178.02345245 46.78028748 178.01190125 47.76583618 178 48.78125 C177.98063385 49.79660828 177.9612677 50.81196655 177.9413147 51.85809326 C177.88158151 55.09801865 177.83515822 58.33797968 177.7890625 61.578125 C177.75087699 63.77605708 177.71182492 65.97397428 177.671875 68.171875 C177.57588515 73.55715956 177.49081927 78.94253383 177.4140625 84.328125 C176.8536045 84.33051335 176.2931465 84.33290171 175.71570492 84.33536243 C162.06037749 84.39457266 148.40522782 84.47034865 134.7500906 84.56383991 C128.14647582 84.60855373 121.54292289 84.64780791 114.93920898 84.67456055 C108.56541895 84.700583 102.19186676 84.74097862 95.81822395 84.79131126 C93.38742088 84.807987 90.95657667 84.81949686 88.52572441 84.82573891 C85.11902854 84.83537194 81.71294217 84.86342321 78.30639648 84.89575195 C77.30298218 84.89431686 76.29956787 84.89288177 75.26574707 84.8914032 C69.55218091 84.96800617 65.46063042 85.58181924 60.4140625 88.328125 C56.46439652 92.54110205 56.27913916 96.49273906 56.20874023 102.09448242 C56.19870751 102.78869702 56.18867479 103.48291162 56.17833805 104.19816303 C56.14697893 106.44327276 56.12219264 108.68840017 56.09765625 110.93359375 C56.07925041 112.32052177 56.0604136 113.70744415 56.0411377 115.09436035 C55.97272051 120.23471501 55.9126482 125.37517799 55.8515625 130.515625 C55.7071875 142.00375 55.5628125 153.491875 55.4140625 165.328125 C28.3540625 165.328125 1.2940625 165.328125 -26.5859375 165.328125 C-26.78745267 128.28515844 -26.78745267 128.28515844 -26.83007812 112.75390625 C-26.85973822 102.03291862 -26.89459278 91.31212758 -26.96313477 80.59130859 C-27.01303141 72.78311863 -27.04524312 64.97508825 -27.05637997 57.16674328 C-27.0628882 53.03368049 -27.07814193 48.90107418 -27.11458778 44.76815796 C-27.14864661 40.87420328 -27.15897081 36.98089102 -27.15147591 33.08680153 C-27.15284607 31.66140051 -27.16272025 30.23597695 -27.18196487 28.81070518 C-27.28541346 20.75062241 -27.15613767 14.51734822 -21.5859375 8.328125 C-15.08892292 1.69291553 -8.97634017 -0.12324818 0 0 Z " fill="#FCFCFD" transform="translate(69.5859375,40.671875)"/>
<path d="M0 0 C9.57 0 19.14 0 29 0 C29.01458252 4.32552979 29.02916504 8.65105957 29.04418945 13.10766602 C29.09450715 27.39288974 29.16094712 41.67800477 29.23571491 55.96312046 C29.28065615 64.6248967 29.32007467 73.28663197 29.34643555 81.94848633 C29.36942917 89.49928015 29.40284243 97.04994415 29.44870156 104.60063499 C29.47261543 108.59766841 29.49135621 112.59457342 29.49761391 116.59167671 C29.50367312 120.35674734 29.52370287 124.12148948 29.55427551 127.88643837 C29.56304239 129.26543647 29.56678111 130.64447752 29.56500816 132.02350235 C29.39590336 141.98154648 29.39590336 141.98154648 33 151 C37.42151464 155.24006603 43.36539518 154.44018922 49.12426758 154.43237305 C50.8078537 154.44766052 50.8078537 154.44766052 52.52545166 154.46325684 C56.23186203 154.49342833 59.93801412 154.50265943 63.64453125 154.51171875 C66.21572227 154.52856229 68.78690503 154.54671209 71.358078 154.56611633 C77.4317383 154.6087994 83.50533159 154.63831655 89.57909364 154.66143972 C96.49572327 154.68850759 103.41221409 154.73241805 110.32874453 154.77772844 C124.55243224 154.87053165 138.77613696 154.94000887 153 155 C153.33 163.58 153.66 172.16 154 181 C137.48356216 181.11305957 120.96745682 181.20508385 104.45073891 181.25906086 C96.78098274 181.28479437 89.11148486 181.3198512 81.44189453 181.37719727 C74.75362891 181.42718187 68.06555044 181.45932627 61.37710321 181.47044247 C57.83862588 181.47693601 54.30068374 181.49209412 50.76237869 181.52865028 C46.80323845 181.56921895 42.84461201 181.56993979 38.88525391 181.56762695 C37.14384125 181.59459152 37.14384125 181.59459152 35.36724854 181.62210083 C26.56338012 181.566624 20.16590875 179.37010563 13.30078125 173.81640625 C3.01220602 162.15332588 -1.08550365 151.90954693 -0.79467773 136.45751953 C-0.79269732 134.95793756 -0.79382302 133.45834883 -0.79777527 131.95877075 C-0.79976287 127.93432146 -0.75895449 123.91136801 -0.70975757 119.88726282 C-0.6656443 115.66465742 -0.66185884 111.44200805 -0.65357971 107.21920776 C-0.63192577 99.24367165 -0.57462421 91.26881673 -0.50413328 83.29357898 C-0.42556825 74.20525308 -0.38732297 65.11689261 -0.35226524 56.02831101 C-0.27933041 37.35174406 -0.15109046 18.67610949 0 0 Z " fill="#FCFCFD" transform="translate(43,231)"/>
<path d="M0 0 C0.33 0 0.66 0 1 0 C1 41.25 1 82.5 1 125 C26.41 125 51.82 125 78 125 C78 116.09 78 107.18 78 98 C78.66 98 79.32 98 80 98 C80.02465881 101.96930989 80.04284023 105.93859034 80.05493164 109.90795898 C80.05997057 111.25920386 80.06680177 112.61044326 80.07543945 113.96166992 C80.08752419 115.90020434 80.09269828 117.838778 80.09765625 119.77734375 C80.10289307 120.94515381 80.10812988 122.11296387 80.11352539 123.31616211 C80 126 80 126 79 127 C77.01340973 127.09937967 75.02325366 127.1279954 73.03417969 127.12939453 C71.11517853 127.13412277 71.11517853 127.13412277 69.15740967 127.13894653 C67.74556444 127.13715448 66.33371951 127.13510296 64.921875 127.1328125 C63.47471093 127.13348637 62.02754698 127.13445709 60.5803833 127.13571167 C57.53372123 127.13719037 54.48708837 127.13503236 51.44042969 127.13037109 C47.57089216 127.12473448 43.70142493 127.12791259 39.83189011 127.13394356 C36.83408095 127.13759694 33.83628779 127.13638789 30.83847809 127.13381577 C29.4146041 127.13315643 27.99072858 127.13393948 26.56685638 127.13629532 C24.55075618 127.13889394 22.53465079 127.13421935 20.51855469 127.12939453 C19.37795593 127.12859894 18.23735718 127.12780334 17.06219482 127.12698364 C11.36518638 126.94889595 5.68300245 126.43715403 0 126 C0 84.42 0 42.84 0 0 Z " fill="#000817" transform="translate(149,183)"/>
<path d="M0 0 C0.98091614 -0.01136993 1.96183228 -0.02273987 2.97247314 -0.03445435 C3.8609494 -0.04729965 4.74942566 -0.06014496 5.66482544 -0.07337952 C8.83390022 0.10160453 10.64475962 0.93461219 12.99249268 3.05514526 C15.43450759 6.71375967 15.43844593 10.60511726 15.61749268 14.86764526 C15.67441284 16.01982544 15.67441284 16.01982544 15.73248291 17.19528198 C16.18140974 27.47479011 16.08190377 37.76874237 15.99249268 48.05514526 C15.00249268 48.55014526 15.00249268 48.55014526 13.99249268 49.05514526 C14.00409424 48.0947937 14.0156958 47.13444214 14.02764893 46.14498901 C14.10050276 37.38186941 13.97010283 28.6261758 13.67999268 19.86764526 C13.65751465 18.88852173 13.63503662 17.90939819 13.61187744 16.90060425 C13.57634766 15.9680481 13.54081787 15.03549194 13.50421143 14.07467651 C13.47802734 13.25072388 13.45184326 12.42677124 13.42486572 11.57785034 C12.99439696 8.33472568 12.99439696 8.33472568 9.99249268 3.05514526 C-10.79750732 3.05514526 -31.58750732 3.05514526 -53.00750732 3.05514526 C-53.00750732 2.72514526 -53.00750732 2.39514526 -53.00750732 2.05514526 C-48.06447989 0.79144173 -43.13114644 0.83042112 -38.06219482 0.73873901 C-36.61370651 0.70756737 -36.61370651 0.70756737 -35.13595581 0.67576599 C-33.09350787 0.63259422 -31.05101419 0.5915412 -29.00848389 0.55245972 C-25.91430254 0.49325365 -22.82029291 0.42813598 -19.72625732 0.36178589 C-17.73407702 0.32042203 -15.74188968 0.27939584 -13.74969482 0.23873901 C-12.83783417 0.22000229 -11.92597351 0.20126556 -10.98648071 0.18196106 C-7.3244352 0.11239158 -3.66208537 0.06714752 0 0 Z " fill="#061525" transform="translate(255.00750732421875,177.94485473632813)"/>
<path d="M0 0 C0.33 0 0.66 0 1 0 C1 25.74 1 51.48 1 78 C-2 75 -2 75 -2.34057617 71.35473633 C-2.34010204 69.84708452 -2.32320244 68.33937995 -2.29296875 66.83203125 C-2.28872391 66.03721848 -2.28447906 65.2424057 -2.28010559 64.42350769 C-2.2633193 61.88615979 -2.22566824 59.34960762 -2.1875 56.8125 C-2.17245305 55.09180835 -2.15876466 53.37110424 -2.14648438 51.65039062 C-2.11341607 47.43328738 -2.06163495 43.21677858 -2 39 C-1.67 39 -1.34 39 -1 39 C-0.67 26.13 -0.34 13.26 0 0 Z " fill="#0F334C" transform="translate(179,191)"/>
<path d="M0 0 C1.48831242 0.00667405 2.97660807 0.01863442 4.46484375 0.03515625 C5.22345703 0.03966797 5.98207031 0.04417969 6.76367188 0.04882812 C8.64326246 0.06064945 10.52281274 0.07858547 12.40234375 0.09765625 C12.40234375 0.42765625 12.40234375 0.75765625 12.40234375 1.09765625 C26.26234375 1.59265625 26.26234375 1.59265625 40.40234375 2.09765625 C40.40234375 2.42765625 40.40234375 2.75765625 40.40234375 3.09765625 C34.63656871 3.14711196 28.87091729 3.18340235 23.10498047 3.20751953 C21.14369557 3.21757408 19.18242564 3.23121958 17.22119141 3.24853516 C14.40132957 3.27280738 11.58166603 3.28414484 8.76171875 3.29296875 C7.88553894 3.30329132 7.00935913 3.31361389 6.10662842 3.32424927 C5.28607971 3.32440033 4.46553101 3.32455139 3.62011719 3.32470703 C2.90063904 3.32914825 2.18116089 3.33358948 1.43988037 3.33816528 C-0.91959837 3.05965448 -2.54406971 2.26354971 -4.59765625 1.09765625 C-3.59765625 0.09765625 -3.59765625 0.09765625 0 0 Z " fill="#0A2D48" transform="translate(169.59765625,359.90234375)"/>
<path d="M0 0 C0.8125 1.6875 0.8125 1.6875 1 4 C-1.40123201 7.03685225 -3.06049508 8.72858747 -6.8125 9.8125 C-7.534375 9.874375 -8.25625 9.93625 -9 10 C-8.06409496 8.8944811 -7.12620142 7.79064547 -6.1875 6.6875 C-5.66542969 6.07261719 -5.14335937 5.45773437 -4.60546875 4.82421875 C-3.12827531 3.14575321 -1.59960869 1.56117966 0 0 Z " fill="#07182A" transform="translate(401,396)"/>
<path d="M0 0 C2.67455183 1.33727591 2.98881385 2.73288323 4.1875 5.4375 C4.55230469 6.24058594 4.91710938 7.04367187 5.29296875 7.87109375 C6 10 6 10 5 12 C0.07692308 6.83076923 0.07692308 6.83076923 -0.3125 2.625 C-0.209375 1.75875 -0.10625 0.8925 0 0 Z " fill="#0E1B28" transform="translate(42,382)"/>
</svg>
